# xmcd
#
# Track frame offsets:
#	150
#	24000
#	45961
#	72232
#	103765
#	126442
#	146213
#	171885
#	194121
#	219573
#
# Disc length: 3144 seconds
#
# Revision: 1
# Processed by: cddbd v1.5.2PL0 Copyright (c) Steve Scherf et al.
# Submitted via: EZCDAudioConverter 8.0.2.1
#
DISCID=950c460a
DTITLE=Đức Huy - Và Con Tim Đã Vui Trở lại
DYEAR=2005
DGENRE=Pop
TTITLE0=Và Con Tim Đã Vui Trở lại
TTITLE1=Màu mắt nhung
TTITLE2=Một tình yêu
TTITLE3=Người tình trăm năm
TTITLE4=Luôn luôn mãi mãi
TTITLE5=Con mưa phùn
TTITLE6=Tiếng mưa đêm
TTITLE7=Yêu em dài lâu
TTITLE8=Mùa đông sắp đến
TTITLE9=Đường xa ướt mưa
EXTD=
EXTT0=
EXTT1=
EXTT2=
EXTT3=
EXTT4=
EXTT5=
EXTT6=
EXTT7=
EXTT8=
EXTT9=
PLAYORDER=
